Coordinates
version=1
nRows=29
nColumns=33
inDegrees=yes

Units are S.I. units (second, meters, Newtons, ...)
Angles are in degrees.

endheader
time	ground_thorax_rot_x	ground_thorax_rot_y	ground_thorax_rot_z	ground_thorax_tx	ground_thorax_ty	ground_thorax_tz	clav_prot_r	clav_elev_r	scapula_abduction_r	scapula_elevation_r	scapula_upward_rot_r	scapula_winging_r	shoulder_elv_r	plane_of_elev_r	axial_rot_r	elbow_flexion_r	pro_sup_r	wrist_flex_r	wrist_dev_r	clav_prot_l	clav_elev_l	scapula_abduction_l	scapula_elevation_l	scapula_upward_rot_l	scapula_winging_l	shoulder_elv_l	plane_of_elev_l	axial_rot_l	elbow_flexion_l	pro_sup_l	wrist_flex_l	wrist_dev_l	
2.4800	-1.566887	4.247326	12.398503	-0.114480	1.026643	0.013140	12.369620	-15.855391	25.314282	-11.082660	7.600226	-4.017665	-15.247916	-63.461996	113.040915	-64.456258	-169.410194	9.005347	-2.650814	16.852637	-7.099002	-24.089307	-12.427159	-30.380218	5.021675	56.685461	-10.255161	8.822909	47.150046	20.126166	16.678054	-13.569033	
2.4900	-1.486907	4.122669	12.471296	-0.114694	1.026837	0.013106	12.221520	-15.910998	24.672173	-10.875982	6.878339	-3.747944	-16.000133	-64.123466	112.629163	-65.993658	-170.508092	9.684881	-3.313922	16.546872	-6.841160	-23.590937	-12.831425	-30.701826	4.745783	56.797298	-11.158635	8.626135	48.846026	19.420107	16.936117	-13.670633	
2.5000	-1.393424	3.994678	12.537780	-0.114894	1.027027	0.013073	12.064798	-15.930754	24.024100	-10.635975	6.161226	-3.495673	-16.744101	-64.802191	112.237168	-67.518398	-171.419313	10.395266	-3.992430	16.237889	-6.574904	-23.087243	-13.248671	-31.032018	4.464862	56.890473	-12.066347	8.446925	50.544785	18.755247	17.132145	-13.791973	
2.5100	-1.291211	3.865959	12.591396	-0.115072	1.027245	0.013044	11.900344	-15.943730	23.364915	-10.384704	5.437426	-3.241882	-17.494831	-65.507088	111.833117	-69.026840	-172.182636	11.169157	-4.728313	15.917131	-6.313361	-22.562157	-13.661552	-31.358753	4.171725	56.985547	-12.999535	8.264792	52.243078	18.124937	17.270279	-13.932505	
2.5200	-1.180866	3.729064	12.636883	-0.115220	1.027473	0.013010	11.715418	-15.931175	22.693485	-10.118637	4.742839	-2.994194	-18.263961	-66.246178	111.448078	-70.502819	-172.843871	11.978752	-5.472359	15.585850	-6.041504	-22.018324	-14.084301	-31.682944	3.867890	57.057053	-13.938995	8.115707	53.923166	17.545887	17.360250	-14.099102	
2.5300	-1.067341	3.591222	12.674676	-0.115347	1.027733	0.012971	11.518131	-15.917694	22.008732	-9.850690	4.052274	-2.739334	-19.059255	-67.017442	111.044725	-71.936526	-173.417541	12.862819	-6.273996	15.239128	-5.774038	-21.445776	-14.498408	-31.993619	3.549930	57.129467	-14.910396	7.955003	55.582641	17.017353	17.398845	-14.302716	
2.5400	-0.945169	3.449873	12.711397	-0.115465	1.027967	0.012926	11.306317	-15.847565	21.326355	-9.542708	3.399381	-2.515147	-19.857415	-67.798822	110.680989	-73.310978	-173.828287	13.770050	-7.050591	14.894071	-5.487891	-20.875136	-14.929806	-32.302469	3.233190	57.165555	-15.872399	7.824046	57.202577	16.580341	17.365544	-14.565987	
2.5500	-0.822596	3.312056	12.748099	-0.115583	1.028213	0.012873	11.091845	-15.764861	20.644174	-9.221027	2.747764	-2.296074	-20.668595	-68.594619	110.306489	-74.623033	-174.138305	14.732587	-7.859655	14.545434	-5.203116	-20.295835	-15.355919	-32.599850	2.911807	57.199444	-16.861700	7.669907	58.785301	16.199458	17.278291	-14.882721	
2.5600	-0.698753	3.175244	12.782038	-0.115700	1.028446	0.012813	10.868481	-15.644372	19.966229	-8.872110	2.122157	-2.098065	-21.487887	-69.392746	109.946560	-75.860884	-174.298408	15.743956	-8.671956	14.200187	-4.905362	-19.719532	-15.788523	-32.883851	2.594070	57.215040	-17.856069	7.505038	60.308341	15.892144	17.110766	-15.271851	
2.5700	-0.579826	3.043787	12.812187	-0.115818	1.028698	0.012742	10.641214	-15.520658	19.287172	-8.519554	1.500852	-1.899081	-22.330287	-70.197079	109.561874	-77.018628	-174.360803	16.830330	-9.533017	13.851553	-4.606523	-19.132530	-16.212499	-33.144500	2.272921	57.237994	-18.879951	7.287216	61.770821	15.625633	16.873828	-15.718937	
2.5800	-0.467596	2.917441	12.830208	-0.115925	1.028965	0.012666	10.403279	-15.388144	18.604791	-8.165023	0.900560	-1.701579	-23.208401	-70.998653	109.148818	-78.087073	-174.300532	18.010919	-10.443232	13.498206	-4.298775	-18.530142	-16.629187	-33.369419	1.949561	57.267054	-19.923225	7.009816	63.150861	15.400470	16.536626	-16.234168	
2.5900	-0.363656	2.796189	12.840180	-0.116028	1.029243	0.012583	10.160194	-15.248479	17.925426	-7.809162	0.318665	-1.506472	-24.121307	-71.792648	108.707813	-79.062189	-174.148511	19.257386	-11.382863	13.143135	-3.982071	-17.917462	-17.041076	-33.563437	1.624080	57.302023	-20.981995	6.677344	64.447205	15.197954	16.120403	-16.790311	
2.6000	-0.267839	2.679234	12.841858	-0.116126	1.029526	0.012496	9.912922	-15.097178	17.252319	-7.448979	-0.241899	-1.317426	-25.069155	-72.572730	108.238227	-79.942570	-173.898173	20.566401	-12.343827	12.787700	-3.656818	-17.296782	-17.447405	-33.726040	1.298616	57.339495	-22.049186	6.295966	65.648258	15.017886	15.626301	-17.382861	
2.6100	-0.178194	2.567478	12.837090	-0.116212	1.029817	0.012403	9.662843	-14.934889	16.587835	-7.085917	-0.779629	-1.135245	-26.063640	-73.334410	107.723146	-80.715351	-173.531048	21.953506	-13.330805	12.428508	-3.324751	-16.660720	-17.845306	-33.854212	0.970286	57.374052	-23.119816	5.871800	66.748217	14.856634	15.052741	-18.012224	
2.6200	-0.094658	2.459692	12.825983	-0.116287	1.030108	0.012306	9.413321	-14.758891	15.938668	-6.718792	-1.291410	-0.964041	-27.105201	-74.074663	107.162886	-81.380004	-173.045704	23.406082	-14.334996	12.067352	-2.987971	-16.012904	-18.234055	-33.950709	0.641093	57.400881	-24.187506	5.415145	67.745738	14.716752	14.413356	-18.673637	
2.6300	-0.013640	2.355825	12.810282	-0.116344	1.030394	0.012203	9.166414	-14.561124	15.312444	-6.344339	-1.767491	-0.811634	-28.217054	-74.785203	106.532847	-81.924574	-172.394097	24.945479	-15.360453	11.701247	-2.644634	-15.346228	-18.612661	-34.009677	0.309746	57.408841	-25.243978	4.933634	68.632927	14.606730	13.707484	-19.381846	
2.6400	0.064418	2.251073	12.787474	-0.116400	1.030661	0.012095	8.932654	-14.342633	14.724880	-5.963061	-2.209091	-0.682491	-29.377931	-75.462254	105.853437	-82.364215	-171.618237	26.509633	-16.379350	11.340294	-2.300855	-14.681591	-18.983165	-34.048148	-0.017747	57.396594	-26.284675	4.451037	69.426960	14.528616	12.985898	-20.108790	
2.6500	0.139435	2.146520	12.753301	-0.116436	1.030934	0.011985	8.710953	-14.117778	14.177467	-5.592085	-2.607871	-0.570314	-30.653122	-76.105838	105.053157	-82.677208	-170.630773	28.199367	-17.461632	10.970099	-1.958642	-13.988801	-19.331407	-34.039248	-0.349556	57.370905	-27.322290	3.939476	70.113673	14.496388	12.208753	-20.899816	
2.6600	0.212122	2.036058	12.719696	-0.116487	1.031175	0.011875	8.513621	-13.864994	13.692455	-5.213351	-2.958821	-0.493621	-32.007961	-76.710345	104.193236	-82.884640	-169.511757	29.874521	-18.521047	10.611956	-1.615158	-13.311618	-19.676880	-34.020258	-0.673066	57.319586	-28.338654	3.441893	70.715484	14.510303	11.441722	-21.686607	
2.6700	0.286832	1.925481	12.693340	-0.116536	1.031410	0.011775	8.339849	-13.589855	13.267568	-4.831938	-3.262960	-0.448679	-33.506148	-77.266630	103.192325	-82.969255	-168.178721	31.627980	-19.621671	10.252356	-1.276204	-12.623021	-20.004390	-33.970078	-0.995179	57.249961	-29.344585	2.921748	71.206971	14.587751	10.638532	-22.502082	
2.6800	0.364482	1.808911	12.673130	-0.116611	1.031590	0.011682	8.204774	-13.266432	12.938498	-4.434679	-3.494899	-0.462180	-35.155104	-77.754578	102.069138	-82.952609	-166.699720	33.319359	-20.684826	9.911569	-0.938362	-11.964450	-20.332845	-33.923803	-1.303621	57.154116	-30.318013	2.417232	71.629245	14.728473	9.835215	-23.235211	
2.6900	0.442280	1.694016	12.657486	-0.116692	1.031767	0.011604	8.101924	-12.925925	12.686636	-4.044531	-3.670570	-0.510707	-36.992920	-78.170739	100.754702	-82.818111	-165.064644	35.055450	-21.767908	9.573173	-0.615538	-11.305494	-20.641150	-33.863691	-1.608418	57.059623	-31.280317	1.881654	71.969640	14.932194	8.970080	-23.902370	
2.7000	0.521404	1.579876	12.649332	-0.116807	1.031895	0.011539	8.039100	-12.551036	12.523990	-3.644219	-3.792755	-0.606618	-38.951226	-78.501008	99.322597	-82.596172	-163.413693	36.693084	-22.742703	9.261333	-0.305611	-10.697989	-20.954366	-33.840651	-1.896181	56.963084	-32.196508	1.361808	72.262587	15.187158	8.093917	-24.389637	
2.7100	0.600954	1.473726	12.647502	-0.116936	1.032016	0.011496	8.009696	-12.154315	12.443873	-3.251431	-3.849412	-0.741566	-41.106175	-78.730770	97.676801	-82.257892	-161.736755	38.360222	-23.582178	8.963382	-0.016959	-10.118645	-21.258475	-33.841535	-2.174130	56.884713	-33.073399	0.822346	72.485358	15.512714	7.133608	-24.736777	
2.7200	0.678411	1.370488	12.642294	-0.117091	1.032100	0.011466	8.018594	-11.739398	12.454197	-2.869179	-3.841644	-0.917301	-43.408062	-78.858596	95.869929	-81.831744	-160.154187	39.963424	-24.219525	8.692656	0.252148	-9.595719	-21.565294	-33.889310	-2.434601	56.819963	-33.894810	0.301567	72.669719	15.889457	6.138993	-24.912404	
2.7300	0.766130	1.263254	12.637102	-0.117270	1.032181	0.011459	8.085502	-11.297427	12.616772	-2.518925	-3.701995	-1.163951	-46.147187	-78.864936	93.651776	-81.282155	-158.729806	41.630958	-24.637391	8.433891	0.480289	-9.103162	-21.847481	-33.970637	-2.682892	56.770224	-34.681255	-0.218793	72.791528	16.352131	5.018455	-24.991952	
2.7400	0.855032	1.156587	12.640122	-0.117487	1.032240	0.011466	8.206082	-10.868488	12.886023	-2.197259	-3.523859	-1.445085	-49.096545	-78.770720	91.189523	-80.661019	-157.482763	43.263187	-24.867206	8.198677	0.685317	-8.661569	-22.126249	-34.093564	-2.914686	56.729052	-35.409605	-0.713987	72.848337	16.858895	3.907831	-25.000000	
2.7500	0.940849	1.056091	12.646334	-0.117726	1.032312	0.011483	8.358054	-10.464733	13.222440	-1.914101	-3.311480	-1.740867	-52.162804	-78.599161	88.575177	-79.955307	-156.361293	44.883803	-24.959013	7.981966	0.866646	-8.258465	-22.388417	-34.231973	-3.130730	56.691450	-36.082205	-1.189742	72.819619	17.412741	2.820674	-25.000000	
2.7600	1.004033	0.971099	12.656438	-0.117978	1.032378	0.011492	8.496256	-10.128427	13.497637	-1.654804	-3.189297	-1.979916	-54.831486	-78.418752	86.268844	-79.227884	-155.343811	46.320740	-25.000000	7.800263	1.047077	-7.921152	-22.654812	-34.383533	-3.323538	56.645287	-36.684351	-1.609937	72.720532	17.945633	1.936130	-25.000000	
